<svg xmlns="http://www.w3.org/2000/svg" fill="none" viewBox="0 0 24 24" stroke-width="1.5" stroke="currentColor" class="w-6 h-6">
  <path stroke-linecap="round" stroke-linejoin="round" d="M19.5 14.25v-2.625a3.375 3.375 0 0 0-3.375-3.375h-1.5A1.125 1.125 0 0 1 13.5 7.125v-1.5A3.375 3.375 0 0 0 10.125 2.25H9.75m0 18.75h-2.25a2.25 2.25 0 0 1-2.25-2.25V6.108c0-1.135.845-2.098 1.976-2.192a48.424 48.424 0 0 1 11.16-.408C18.085 3.593 19 4.551 19 5.689v11.503a2.25 2.25 0 0 1-2.25 2.25h-7m0 0v-6.75A2.25 2.25 0 0 0 7.5 10.5h-3" />
</svg>
